<mxfile host="app.diagrams.net" modified="2021-11-11T08:22:59.235Z" agent="5.0 (Windows NT 10.0; Win64; x64) AppleWebKit/537.36 (KHTML, like Gecko) Chrome/95.0.4638.54 Safari/537.36 Edg/95.0.1020.40" etag="QbIJ1aNRBhl8smkuNkED" version="15.7.3" type="github">
  <diagram id="Ggjxi0L5vSjyioqAvVtX" name="Page-1">
    <mxGraphModel dx="868" dy="450" grid="1" gridSize="10" guides="1" tooltips="1" connect="1" arrows="1" fold="1" page="1" pageScale="1" pageWidth="827" pageHeight="1169" math="0" shadow="0">
      <root>
        <mxCell id="0" />
        <mxCell id="1" parent="0" />
        <mxCell id="ZajMOAxJXT_E6iLhtyOF-1" value="安全运维测试中心&lt;br&gt;10.27.0.0/16(主)" style="rounded=1;whiteSpace=wrap;html=1;fillColor=#f8cecc;strokeColor=#b85450;" vertex="1" parent="1">
          <mxGeometry x="35" y="840" width="120" height="60" as="geometry" />
        </mxCell>
        <mxCell id="ZajMOAxJXT_E6iLhtyOF-2" value="云购票测试环境&lt;br&gt;10.28.0.0/16(主)" style="rounded=1;whiteSpace=wrap;html=1;fillColor=#dae8fc;strokeColor=#6c8ebf;" vertex="1" parent="1">
          <mxGeometry x="450" y="940" width="120" height="60" as="geometry" />
        </mxCell>
        <mxCell id="ZajMOAxJXT_E6iLhtyOF-3" value="银联IC卡测试环境&lt;br&gt;10.30.0.0/16(主)" style="rounded=1;whiteSpace=wrap;html=1;fillColor=#dae8fc;strokeColor=#6c8ebf;" vertex="1" parent="1">
          <mxGeometry x="440" y="760" width="120" height="60" as="geometry" />
        </mxCell>
        <mxCell id="ZajMOAxJXT_E6iLhtyOF-4" value="腾讯乘车码测试环境&lt;br&gt;10.29.0.0/16(主)" style="rounded=1;whiteSpace=wrap;html=1;fillColor=#dae8fc;strokeColor=#6c8ebf;" vertex="1" parent="1">
          <mxGeometry x="215" y="740" width="120" height="60" as="geometry" />
        </mxCell>
        <mxCell id="ZajMOAxJXT_E6iLhtyOF-5" value="&lt;font style=&quot;font-size: 22px&quot;&gt;深铁测试环境（APPID:1257283724）&lt;br&gt;VPC对等链接关系图（现状）&lt;/font&gt;" style="text;html=1;align=center;verticalAlign=middle;resizable=0;points=[];autosize=1;strokeColor=none;fillColor=none;" vertex="1" parent="1">
          <mxGeometry x="155" y="670" width="390" height="40" as="geometry" />
        </mxCell>
        <mxCell id="ZajMOAxJXT_E6iLhtyOF-6" value="深圳通乘车码测试环境&lt;br&gt;10.31.0.0/16(主)" style="rounded=1;whiteSpace=wrap;html=1;fillColor=#dae8fc;strokeColor=#6c8ebf;" vertex="1" parent="1">
          <mxGeometry x="210" y="940" width="130" height="60" as="geometry" />
        </mxCell>
        <mxCell id="ZajMOAxJXT_E6iLhtyOF-19" value="" style="endArrow=classic;startArrow=classic;html=1;rounded=0;fontSize=12;strokeColor=default;" edge="1" parent="1">
          <mxGeometry width="50" height="50" relative="1" as="geometry">
            <mxPoint x="220" y="940" as="sourcePoint" />
            <mxPoint x="155" y="890" as="targetPoint" />
          </mxGeometry>
        </mxCell>
        <mxCell id="ZajMOAxJXT_E6iLhtyOF-20" value="" style="endArrow=classic;startArrow=classic;html=1;rounded=0;fontSize=12;strokeColor=default;entryX=0;entryY=0.5;entryDx=0;entryDy=0;" edge="1" parent="1" target="ZajMOAxJXT_E6iLhtyOF-2">
          <mxGeometry width="50" height="50" relative="1" as="geometry">
            <mxPoint x="340" y="970" as="sourcePoint" />
            <mxPoint x="390" y="920" as="targetPoint" />
          </mxGeometry>
        </mxCell>
        <mxCell id="ZajMOAxJXT_E6iLhtyOF-21" value="发起端" style="text;html=1;align=center;verticalAlign=middle;resizable=0;points=[];autosize=1;strokeColor=none;fillColor=none;fontSize=12;" vertex="1" parent="1">
          <mxGeometry x="160" y="930" width="50" height="20" as="geometry" />
        </mxCell>
        <mxCell id="ZajMOAxJXT_E6iLhtyOF-22" value="发起端" style="text;html=1;align=center;verticalAlign=middle;resizable=0;points=[];autosize=1;strokeColor=none;fillColor=none;fontSize=12;" vertex="1" parent="1">
          <mxGeometry x="340" y="970" width="50" height="20" as="geometry" />
        </mxCell>
        <mxCell id="ZajMOAxJXT_E6iLhtyOF-23" value="" style="endArrow=classic;startArrow=classic;html=1;rounded=0;fontSize=12;strokeColor=default;exitX=0.417;exitY=0;exitDx=0;exitDy=0;exitPerimeter=0;" edge="1" parent="1" source="ZajMOAxJXT_E6iLhtyOF-2">
          <mxGeometry width="50" height="50" relative="1" as="geometry">
            <mxPoint x="450" y="870" as="sourcePoint" />
            <mxPoint x="500" y="820" as="targetPoint" />
          </mxGeometry>
        </mxCell>
        <mxCell id="ZajMOAxJXT_E6iLhtyOF-24" value="" style="endArrow=classic;startArrow=classic;html=1;rounded=0;fontSize=12;strokeColor=default;entryX=1;entryY=0.5;entryDx=0;entryDy=0;" edge="1" parent="1">
          <mxGeometry width="50" height="50" relative="1" as="geometry">
            <mxPoint x="450" y="946" as="sourcePoint" />
            <mxPoint x="155" y="876" as="targetPoint" />
            <Array as="points">
              <mxPoint x="450" y="946" />
            </Array>
          </mxGeometry>
        </mxCell>
        <mxCell id="ZajMOAxJXT_E6iLhtyOF-25" value="" style="endArrow=classic;startArrow=classic;html=1;rounded=0;fontSize=12;strokeColor=default;entryX=0.01;entryY=0.937;entryDx=0;entryDy=0;entryPerimeter=0;" edge="1" parent="1" target="ZajMOAxJXT_E6iLhtyOF-4">
          <mxGeometry width="50" height="50" relative="1" as="geometry">
            <mxPoint x="153" y="842" as="sourcePoint" />
            <mxPoint x="211.91999999999996" y="798.22" as="targetPoint" />
            <Array as="points">
              <mxPoint x="153" y="842" />
            </Array>
          </mxGeometry>
        </mxCell>
        <mxCell id="ZajMOAxJXT_E6iLhtyOF-26" value="发起端" style="text;html=1;align=center;verticalAlign=middle;resizable=0;points=[];autosize=1;strokeColor=none;fillColor=none;fontSize=12;" vertex="1" parent="1">
          <mxGeometry x="495" y="920" width="50" height="20" as="geometry" />
        </mxCell>
        <mxCell id="ZajMOAxJXT_E6iLhtyOF-27" value="发起端" style="text;html=1;align=center;verticalAlign=middle;resizable=0;points=[];autosize=1;strokeColor=none;fillColor=none;fontSize=12;" vertex="1" parent="1">
          <mxGeometry x="414" y="920" width="50" height="20" as="geometry" />
        </mxCell>
        <mxCell id="ZajMOAxJXT_E6iLhtyOF-28" value="发起端" style="text;html=1;align=center;verticalAlign=middle;resizable=0;points=[];autosize=1;strokeColor=none;fillColor=none;fontSize=12;" vertex="1" parent="1">
          <mxGeometry x="200" y="800" width="50" height="20" as="geometry" />
        </mxCell>
        <mxCell id="ZajMOAxJXT_E6iLhtyOF-29" value="" style="endArrow=classic;startArrow=classic;html=1;rounded=0;fontSize=12;strokeColor=default;" edge="1" parent="1" source="ZajMOAxJXT_E6iLhtyOF-1">
          <mxGeometry width="50" height="50" relative="1" as="geometry">
            <mxPoint x="310" y="870" as="sourcePoint" />
            <mxPoint x="440" y="800" as="targetPoint" />
          </mxGeometry>
        </mxCell>
        <mxCell id="ZajMOAxJXT_E6iLhtyOF-30" value="发起端" style="text;html=1;align=center;verticalAlign=middle;resizable=0;points=[];autosize=1;strokeColor=none;fillColor=none;fontSize=12;" vertex="1" parent="1">
          <mxGeometry x="385" y="780" width="50" height="20" as="geometry" />
        </mxCell>
        <mxCell id="ZajMOAxJXT_E6iLhtyOF-31" value="" style="endArrow=classic;startArrow=classic;html=1;rounded=0;fontSize=12;strokeColor=default;entryX=0.75;entryY=1;entryDx=0;entryDy=0;exitX=0.167;exitY=0;exitDx=0;exitDy=0;exitPerimeter=0;" edge="1" parent="1" source="ZajMOAxJXT_E6iLhtyOF-2" target="ZajMOAxJXT_E6iLhtyOF-4">
          <mxGeometry width="50" height="50" relative="1" as="geometry">
            <mxPoint x="310" y="870" as="sourcePoint" />
            <mxPoint x="360" y="820" as="targetPoint" />
          </mxGeometry>
        </mxCell>
      </root>
    </mxGraphModel>
  </diagram>
</mxfile>
